<svg xmlns="http://www.w3.org/2000/svg" width="100%" height="100%" viewBox="0 0 1200 400"><defs><linearGradient id="bgGrad" x1="0%" x2="100%" y1="0%" y2="100%"><stop offset="0%" stop-color="#0f172a"/><stop offset="50%" stop-color="#1e1b4b"/><stop offset="100%" stop-color="#0f172a"/></linearGradient><linearGradient id="accentGrad" x1="0%" x2="100%" y1="0%" y2="0%"><stop offset="0%" stop-color="#38bdf8"/><stop offset="50%" stop-color="#818cf8"/><stop offset="100%" stop-color="#c084fc"/></linearGradient><filter id="glow" width="140%" height="140%" x="-20%" y="-20%"><feGaussianBlur result="blur" stdDeviation="6"/><feComposite in="SourceGraphic" in2="blur" operator="over"/></filter><linearGradient id="stream1" x1="0%" x2="100%" y1="0%" y2="0%"><stop offset="0%" stop-color="#38bdf8" stop-opacity="0"/><stop offset="50%" stop-color="#38bdf8" stop-opacity=".8"/><stop offset="100%" stop-color="#818cf8" stop-opacity="0"/></linearGradient></defs><rect width="1200" height="400" fill="url(#bgGrad)" rx="16"/><g stroke="#fff" stroke-width="1" opacity=".08"><line x1="0" x2="1200" y1="80" y2="80"/><line x1="0" x2="1200" y1="160" y2="160"/><line x1="0" x2="1200" y1="240" y2="240"/><line x1="0" x2="1200" y1="320" y2="320"/><line x1="200" x2="200" y1="0" y2="400"/><line x1="400" x2="400" y1="0" y2="400"/><line x1="600" x2="600" y1="0" y2="400"/><line x1="800" x2="800" y1="0" y2="400"/><line x1="1000" x2="1000" y1="0" y2="400"/></g><path fill="none" stroke="url(#stream1)" stroke-width="3" d="M 100,320 C 300,380 400,280 600,340 C 800,400 900,300 1100,330" opacity=".6"/><path fill="none" stroke="url(#stream1)" stroke-width="2" d="M 50,80 C 250,20 450,120 650,50 C 850,-20 1000,90 1150,60" opacity=".4"/><g filter="url(#glow)"><circle cx="150" cy="325" r="5" fill="#38bdf8"><animate attributeName="cx" dur="12s" repeatCount="indefinite" values="100;1100;100"/><animate attributeName="cy" dur="12s" repeatCount="indefinite" values="320;330;320"/><animate attributeName="opacity" dur="6s" repeatCount="indefinite" values="0.2;1;0.2"/></circle><circle cx="900" cy="65" r="4" fill="#c084fc"><animate attributeName="cx" dur="15s" repeatCount="indefinite" values="1150;50;1150"/><animate attributeName="opacity" dur="5s" repeatCount="indefinite" values="0.8;0.3;0.8"/></circle></g><g opacity=".25" transform="translate(80, 140)"><ellipse cx="60" cy="20" fill="none" stroke="#38bdf8" stroke-width="3" rx="45" ry="15"/><path fill="none" stroke="#38bdf8" stroke-width="3" d="M 15,20 L 15,80 C 15,95 105,95 105,80 L 105,20"/><path fill="none" stroke="#38bdf8" stroke-width="3" d="M 15,50 C 15,65 105,65 105,50"/></g><g opacity=".25" transform="translate(1020, 140)"><ellipse cx="60" cy="20" fill="none" stroke="#c084fc" stroke-width="3" rx="45" ry="15"/><path fill="none" stroke="#c084fc" stroke-width="3" d="M 15,20 L 15,80 C 15,95 105,95 105,80 L 105,20"/><path fill="none" stroke="#c084fc" stroke-width="3" d="M 15,50 C 15,65 105,65 105,50"/></g><g filter="url(#glow)" opacity=".3"><path stroke="url(#accentGrad)" stroke-dasharray="12 8" stroke-width="4" d="M 220,180 L 980,180"><animate attributeName="stroke-dashoffset" dur="4s" repeatCount="indefinite" values="100;0"/></path><polygon fill="#c084fc" points="975 172 995 180 975 188"/></g><g transform="translate(600, 75)"><rect width="280" height="36" x="-140" y="-18" fill="#1e293b" stroke="#38bdf8" stroke-width="1.5" opacity=".95" rx="18"/><text x="0" y="5" fill="#38bdf8" font-family="-apple-system, BlinkMacSystemFont, 'Segoe UI', Roboto, sans-serif" font-size="13" font-weight="700" letter-spacing="1.5" text-anchor="middle">🔄 DATA REPLICATION &amp; CDC ECOSYSTEM</text></g><text x="600" y="155" fill="#fff" font-family="-apple-system, BlinkMacSystemFont, 'Segoe UI', Roboto, sans-serif" font-size="44" font-weight="900" letter-spacing="-.5" text-anchor="middle">Awesome Database Migration Service</text><text x="600" y="205" fill="url(#accentGrad)" font-family="-apple-system, BlinkMacSystemFont, 'Segoe UI', Roboto, sans-serif" font-size="22" font-weight="700" letter-spacing=".5" text-anchor="middle">Homogeneous &amp; Heterogeneous Migration • CDC • Continuous Replication</text><g><g transform="translate(600, 265) translate(-270, 0)"><rect width="170" height="32" x="-85" y="-16" fill="#0f172a" stroke="#475569" stroke-width="1" rx="8"/><text x="0" y="5" fill="#94a3b8" font-family="-apple-system, BlinkMacSystemFont, 'Segoe UI', Roboto, sans-serif" font-size="13" font-weight="600" text-anchor="middle">☁️ Cloud DMS Services</text></g><g transform="translate(600, 265) translate(0, 0)"><rect width="170" height="32" x="-85" y="-16" fill="#0f172a" stroke="#475569" stroke-width="1" rx="8"/><text x="0" y="5" fill="#94a3b8" font-family="-apple-system, BlinkMacSystemFont, 'Segoe UI', Roboto, sans-serif" font-size="13" font-weight="600" text-anchor="middle">⚡ Open-Source CDC &amp; ELT</text></g><g transform="translate(600, 265) translate(270, 0)"><rect width="170" height="32" x="-85" y="-16" fill="#0f172a" stroke="#475569" stroke-width="1" rx="8"/><text x="0" y="5" fill="#94a3b8" font-family="-apple-system, BlinkMacSystemFont, 'Segoe UI', Roboto, sans-serif" font-size="13" font-weight="600" text-anchor="middle">🚀 Zero-Downtime Sync</text></g></g><rect width="500" height="3" x="350" y="330" fill="url(#accentGrad)" opacity=".8" rx="1.5"/></svg>